<?xml version="1.0" encoding="iso-8859-1"?>
<!-- Generator: Adobe Illustrator 19.0.0, SVG Export Plug-In . SVG Version: 6.00 Build 0)  -->
<svg version="1.1" id="Layer_1" xmlns="http://www.w3.org/2000/svg" xmlns:xlink="http://www.w3.org/1999/xlink" x="0px" y="0px"
	 viewBox="0 0 512 512" style="enable-background:new 0 0 512 512;" xml:space="preserve">
<g>
	<g>
		<path d="M399.136,187.77l-176.91-64.853l-29.774-39.401c-6.857-9.074-20.516-9.029-27.309,0.104l-32.29,43.406
			c-3.938,5.294-4.473,12.385-1.371,18.209l23.03,43.244c-32.187,10.663-67.412-8.036-75.542-41.964
			C67.847,100.071,0,108.657,0,155.392v193.957v0.001v68.844c0,9.425,7.641,17.067,17.067,17.067h477.867
			c9.425,0,17.067-7.641,17.067-17.067v-68.845C512,277.17,467.054,212.669,399.136,187.77z M224.675,160.167l162.712,59.649
			c48.717,17.861,83.044,61.822,89.411,112.465H354.074l-150.42-135.993C212.903,186.403,220.374,174.007,224.675,160.167z
			 M178.943,122.254l14.992,19.839c-1.566,9.672-5.443,18.591-11.406,26.378l-15.84-29.745L178.943,122.254z M34.133,155.391
			c0-6.575,9.984-7.851,11.642-0.926c13.957,58.254,77.52,86.885,129.684,62.348l127.718,115.469H34.133V155.391z M477.867,401.126
			H34.133v-34.71h443.733V401.126z"/>
	</g>
</g>
<g>
	<g>
		<path d="M132.086,259.32H87.937c-9.425,0-17.067,7.641-17.067,17.067c0,9.425,7.64,17.067,17.067,17.067h44.149
			c9.425,0,17.067-7.641,17.067-17.067C149.152,266.962,141.511,259.32,132.086,259.32z"/>
	</g>
</g>
<g>
</g>
<g>
</g>
<g>
</g>
<g>
</g>
<g>
</g>
<g>
</g>
<g>
</g>
<g>
</g>
<g>
</g>
<g>
</g>
<g>
</g>
<g>
</g>
<g>
</g>
<g>
</g>
<g>
</g>
</svg>
